<svg width="117" height="24" viewBox="0 0 117 24" fill="none" xmlns="http://www.w3.org/2000/svg">
<g clip-path="url(#clip0_1066_214)">
<path d="M11.9015 0H4.957V0.644322H7.10477V13.6739C7.10477 13.6739 6.96703 14.7155 6.60362 15.2489C6.22257 15.8083 5.88307 16.1018 5.24337 16.3228C4.60915 16.5419 4.14224 16.5863 3.52515 16.3228L3.51442 16.3182C3.27814 16.2174 3.13032 16.1543 2.95241 15.9649C2.70356 15.7 2.59445 15.1058 2.59445 15.1058C2.59445 15.1058 2.67857 14.1879 2.45127 13.6739C2.29745 13.3262 2.23271 13.0666 1.87853 12.8864C1.47981 12.6836 1.12297 12.6672 0.733052 12.8864C0.401583 13.0728 0.305228 13.3224 0.160313 13.6739C-0.074082 14.2426 -0.0317482 14.6646 0.160313 15.2489C0.371646 15.8919 0.678612 16.2227 1.2342 16.6092C1.94122 17.101 2.52637 17.0115 3.38197 17.1103C4.24296 17.2098 4.74881 17.2665 5.60133 17.1103C6.45429 16.954 6.95994 16.8097 7.6775 16.3228C8.39804 15.8339 8.80594 15.4621 9.18094 14.6762C9.52341 13.9585 9.5389 12.6717 9.5389 12.6717V0.644322H11.9015V0Z" fill="white"/>
<path fill-rule="evenodd" clip-rule="evenodd" d="M16.1254 16.753V16.1087H17.0561C17.0561 16.1087 17.7704 15.8828 18.0584 15.536C18.2742 15.2761 18.4164 14.7485 18.4164 14.7485V0.716587H16.4834V0.0722656H23.7858C23.7858 0.0722656 25.216 0.0902283 26.0767 0.358631C26.9842 0.641607 27.5681 0.816587 28.2245 1.50409C28.8117 2.11908 29.0142 2.61376 29.2268 3.43706C29.4645 4.35743 29.4112 4.93864 29.2268 5.87116C29.0324 6.85433 28.9196 7.51169 28.2245 8.23368C27.5741 8.90922 26.9662 9.01041 26.0767 9.30755C25.2134 9.59597 24.6912 9.6432 23.7858 9.73709C22.6456 9.85534 20.8505 9.73709 20.8505 9.73709V14.7485C20.8505 14.7485 20.9941 15.2749 21.2085 15.536C21.4793 15.8658 22.1392 16.1087 22.1392 16.1087H23.2846V16.753H16.1254ZM20.8505 0.716587V8.94959H23.571C23.571 8.94959 24.7412 8.7701 25.3608 8.37686C25.895 8.03787 26.1743 7.76993 26.5063 7.2314C26.9725 6.47502 26.972 5.89988 27.0074 5.01207C27.0506 3.93264 27.132 3.17226 26.5063 2.2916C26.162 1.80703 25.8719 1.5929 25.3608 1.28932C24.7299 0.914501 23.571 0.716587 23.571 0.716587H20.8505Z" fill="white"/>
<path d="M34.596 14.963V0.716285H32.663V0.143555H37.2449L42.9007 12.8152L47.9838 0.143555H52.2077V0.716285H50.5611V14.963C50.5611 14.963 50.8012 15.6262 51.1338 15.8936C51.5996 16.2681 52.6373 16.18 52.6373 16.18V16.7527H46.0508V16.18C46.0508 16.18 47.051 16.2663 47.4826 15.8936C47.795 15.6238 47.9838 14.963 47.9838 14.963V2.43448L42.2564 16.7527H41.6836L35.6699 2.43448H35.3119V14.963C35.3119 14.963 35.6939 15.6441 36.0994 15.8936C36.4922 16.1353 37.2449 16.18 37.2449 16.18V16.7527H32.663V16.18C32.663 16.18 33.5327 16.194 33.9517 15.8936C34.3109 15.6361 34.596 14.963 34.596 14.963Z" fill="white"/>
<path fill-rule="evenodd" clip-rule="evenodd" d="M59.224 4.51035C60.2167 4.49489 60.8212 4.53974 61.7298 4.9399C62.6768 5.35699 63.1707 5.76958 63.8059 6.5865C64.4281 7.38654 64.6377 7.96491 64.8798 8.94901C65.1938 10.225 65.1518 11.0282 64.8798 12.3138C64.6488 13.4059 64.4839 14.0759 63.8059 14.9627C63.1775 15.7848 62.6577 16.1512 61.7298 16.6093C60.8238 17.0565 60.2344 17.2468 59.224 17.2536C58.1866 17.2606 57.5608 17.1001 56.6467 16.6093C55.7916 16.1502 55.3494 15.7524 54.7853 14.9627C54.1424 14.0627 53.999 13.3985 53.783 12.3138C53.5264 11.0251 53.486 10.229 53.783 8.94901C54.0095 7.97273 54.1772 7.38314 54.7853 6.5865C55.4266 5.7464 55.9604 5.35333 56.9331 4.9399C57.7708 4.58382 58.3139 4.52452 59.224 4.51035ZM58.5797 5.36943H60.2264C60.2264 5.36943 61.1015 5.68481 61.515 6.08534C62.0901 6.64234 62.3741 7.94671 62.3741 7.94671V13.4592C62.3741 13.4592 62.1826 15.032 61.515 15.6786C61.1015 16.0791 60.7815 16.2421 60.2264 16.3945C59.6062 16.5647 59.2051 16.5443 58.5797 16.3945C57.9718 16.2488 57.5967 16.1138 57.1479 15.6786C56.4877 15.0383 56.3604 13.4592 56.3604 13.4592V7.94671C56.3604 7.94671 56.5836 6.63723 57.1479 6.08534C57.5948 5.64821 58.5797 5.36943 58.5797 5.36943Z" fill="white"/>
<path d="M70.1774 4.72477H66.1683V5.44069H68.4592V14.4612C68.4592 14.4612 68.3738 15.31 68.0296 15.6782C67.5242 16.2191 66.1683 16.0362 66.1683 16.0362V16.6089H72.8979V16.0362C72.8979 16.0362 71.7964 16.095 71.3229 15.6782C70.9286 15.3312 70.7502 14.4612 70.7502 14.4612V8.73389C70.7502 8.73389 71.3683 6.84155 72.3968 6.51456C72.9297 6.34513 73.2993 6.33436 73.8286 6.51456C74.466 6.73154 74.4481 7.58558 75.1173 7.66002C75.6539 7.71971 76.0958 7.60087 76.4059 7.15888C76.7271 6.70117 76.6354 6.23696 76.4059 5.72705C76.1443 5.14566 75.7141 4.94902 75.1173 4.72477C74.4106 4.45926 73.9045 4.49866 73.1843 4.72477C72.5111 4.93614 72.174 5.22233 71.6809 5.72705C71.2148 6.20408 70.7502 7.15888 70.7502 7.15888L70.1774 4.72477Z" fill="white"/>
<path fill-rule="evenodd" clip-rule="evenodd" d="M81.7039 4.58221C82.3663 4.47505 82.7556 4.50508 83.4221 4.58221C84.0487 4.65472 84.3977 4.74378 84.9972 4.94017C85.3378 5.05177 85.6081 5.29611 85.8611 5.52483C86.2436 5.87057 86.5866 6.18061 87.0733 5.94244C87.3522 5.80598 87.464 5.59722 87.5869 5.36751C87.6611 5.22892 87.7393 5.08272 87.8608 4.94017C87.9674 4.81519 88.0435 4.67482 88.1157 4.54165C88.261 4.27368 88.3905 4.0349 88.7199 4.00948C89.2525 3.96839 89.5684 4.42867 89.7222 4.94017C89.9137 5.57655 89.5883 6.0896 89.0779 6.51517C88.4732 7.01936 87.0733 6.72995 87.0733 6.72995C87.0733 6.72995 87.4016 7.49788 87.5029 8.01859C87.6523 8.78703 87.6963 9.26458 87.5029 10.0231C87.2671 10.9478 86.9213 11.4584 86.2142 12.0993C85.341 12.8908 83.4221 13.2448 83.4221 13.2448L80.7016 13.8175C80.7016 13.8175 79.2704 14.2183 79.3414 14.8914C79.4072 15.5162 80.7016 15.7505 80.7016 15.7505L84.9972 15.9652C84.9972 15.9652 86.7417 16.0652 87.5029 16.7527C88.1156 17.3061 88.5052 18.6141 88.5052 18.6141V20.3323C88.5052 20.3323 88.1339 21.7662 87.5029 22.4084C86.8934 23.0288 86.473 23.3743 85.7131 23.5539C85.5427 23.5941 85.9015 23.504 85.7131 23.5539C83.9023 24.0334 81.7204 24.1932 79.9141 23.697C79.6856 23.6343 80.1227 23.7416 79.9141 23.697C79.2081 23.5461 78.2466 23.0508 77.7663 22.4084C77.2669 21.7405 76.9411 21.1008 77.2652 20.3323C77.4881 19.8037 77.7657 19.3102 78.3391 19.33C78.8175 19.3465 79.0166 19.7225 79.2359 20.1366C79.2702 20.2013 79.305 20.267 79.3414 20.3323C79.501 20.6189 79.4826 20.899 79.4645 21.1748C79.445 21.4709 79.4259 21.7619 79.6277 22.0505C80.0721 22.6858 81.4175 22.9096 81.4175 22.9096H84.2812C84.2812 22.9096 85.9974 22.7894 86.6438 22.0505C87.1156 21.5111 87.3631 21.045 87.2881 20.3323C87.2292 19.7727 87.0672 19.4142 86.6438 19.0437C86.1436 18.606 84.9972 18.6141 84.9972 18.6141L81.1312 18.3993C81.1312 18.3993 79.6538 18.387 78.9118 17.8982C78.141 17.3904 77.5964 16.8872 77.5516 15.9652C77.5033 14.9736 78.0965 14.384 78.9118 13.8175C79.6247 13.3222 81.0596 13.2448 81.0596 13.2448C81.0596 13.2448 79.4322 12.8478 78.7686 12.0993C78.1865 11.4427 78.0708 10.8857 77.9095 10.0231C77.7656 9.25366 77.7389 8.78261 77.9095 8.01859C78.1498 6.94226 78.501 6.29864 79.3414 5.58449C80.1051 4.9355 80.7145 4.74226 81.7039 4.58221ZM82.0618 5.22649H83.2073C83.2073 5.22649 84.0515 5.58804 84.4244 6.014C84.8451 6.49462 85.0687 7.51741 85.0687 7.51741V10.1663C85.0687 10.1663 84.93 11.4479 84.4244 12.0277C84.0523 12.4543 83.2073 12.8152 83.2073 12.8152H82.0618C82.0618 12.8152 81.3273 12.4217 80.988 12.0277C80.4797 11.4375 80.272 10.1663 80.272 10.1663V7.51741C80.272 7.51741 80.5595 6.5032 80.988 6.014C81.3306 5.62277 82.0618 5.22649 82.0618 5.22649Z" fill="white"/>
<path fill-rule="evenodd" clip-rule="evenodd" d="M90.9394 7.80314C91.199 8.18928 91.4764 8.44746 91.9417 8.44746C92.407 8.44746 92.6698 8.17909 92.944 7.80314C93.1069 7.57972 93.1113 7.35797 93.1158 7.12918C93.1197 6.93143 93.1238 6.72841 93.2303 6.51449C93.5038 5.96567 93.7417 5.61316 94.3042 5.36903C94.8685 5.12414 95.8793 5.36903 95.8793 5.36903C95.8793 5.36903 96.7373 5.61293 97.0963 6.01335C97.5095 6.47415 97.5975 7.51677 97.5975 7.51677V9.66451C97.5975 9.66451 95.5446 9.7151 94.3042 10.0941C94.2078 10.1235 94.115 10.1514 94.0253 10.1784C93.2124 10.4226 92.6495 10.5917 91.9417 11.1679C91.2305 11.7469 90.7764 12.1518 90.5098 13.0293C90.2905 13.7516 90.2717 14.246 90.5098 14.9623C90.7854 15.7911 91.1929 16.2308 91.9417 16.6805C92.7456 17.1633 93.3737 17.2259 94.3042 17.11C95.1131 17.0093 95.5449 16.7527 96.2372 16.3225C96.8271 15.956 97.5975 15.177 97.5975 15.177C97.5975 15.177 97.9159 15.9757 98.3134 16.3225C98.7868 16.7355 99.1904 16.8476 99.8168 16.8952C100.602 16.955 101.16 16.8441 101.75 16.3225C102.399 15.748 102.537 14.2464 102.537 14.2464H102.108C102.108 14.2464 101.668 15.4634 101.034 15.4634C100.4 15.4634 99.96 14.2464 99.96 14.2464V7.01563C99.96 7.01563 99.6869 5.9885 99.2441 5.51221C98.7503 4.98099 97.5975 4.65312 97.5975 4.65312H93.7315C93.7315 4.65312 92.383 4.92851 91.7985 5.51221C91.1224 6.18737 90.4062 7.01021 90.9394 7.80314ZM97.5258 10.3804C97.5258 10.3804 96.2176 10.5006 95.4497 10.81C94.9157 11.0251 94.6077 11.1627 94.161 11.5259C93.4927 12.0692 93.02 12.4671 92.8723 13.3157C92.7502 14.0179 92.7826 14.5508 93.2303 15.1055C93.7031 15.6912 94.2681 15.8561 95.0201 15.8214C95.5946 15.7948 95.925 15.5665 96.3572 15.2679C96.4328 15.2156 96.5115 15.1613 96.5951 15.1055C96.9912 14.8412 97.5258 14.3179 97.5258 14.3179V10.3804Z" fill="white"/>
<path d="M102.967 5.44078V4.79646H106.618L107.262 6.9442C107.262 6.9442 107.863 5.87806 108.479 5.44078C109.064 5.02594 109.492 4.92273 110.198 4.79646C110.886 4.67331 111.31 4.62628 111.987 4.79646C112.853 5.01365 113.383 5.30181 113.92 6.01351C114.352 6.58527 114.565 7.73171 114.565 7.73171V14.8192C114.565 14.8192 114.767 15.4305 115.066 15.6783C115.463 16.0073 116.355 15.9647 116.355 15.9647V16.6806H110.699V15.9647C110.699 15.9647 111.288 15.9068 111.558 15.6783C111.844 15.436 111.987 14.8192 111.987 14.8192V7.73171C111.987 7.73171 111.795 6.61458 111.272 6.22829C110.728 5.82659 110.216 5.88007 109.553 6.01351C108.928 6.13944 108.582 6.35967 108.121 6.80102C107.65 7.252 107.262 8.23284 107.262 8.23284V14.8192C107.262 14.8192 107.459 15.4372 107.763 15.6783C108.083 15.9311 108.766 15.9647 108.766 15.9647V16.6806H102.967V15.9647C102.967 15.9647 103.859 16.0073 104.255 15.6783C104.555 15.4305 104.757 14.8192 104.757 14.8192V5.44078H102.967Z" fill="white"/>
<path d="M29.4414 15.7503C29.4414 16.541 28.8003 17.1821 28.0096 17.1821C27.2188 17.1821 26.5777 16.541 26.5777 15.7503C26.5777 14.9595 27.2188 14.3184 28.0096 14.3184C28.8003 14.3184 29.4414 14.9595 29.4414 15.7503Z" fill="white"/>
<path d="M14.2639 15.7503C14.2639 16.541 13.6229 17.1821 12.8321 17.1821C12.0413 17.1821 11.4003 16.541 11.4003 15.7503C11.4003 14.9595 12.0413 14.3184 12.8321 14.3184C13.6229 14.3184 14.2639 14.9595 14.2639 15.7503Z" fill="white"/>
</g>
<defs>
<clipPath id="clip0_1066_214">
<rect width="116.355" height="24" fill="white"/>
</clipPath>
</defs>
</svg>
